<svg width="12" height="14" viewBox="0 0 12 14" fill="none" xmlns="http://www.w3.org/2000/svg">
<path d="M2.58249 2.37455L6.10397 0.332275L9.62539 2.37455L8.33074 3.12902L6.10397 1.84122L3.87714 3.12902L2.58249 2.37455ZM9.62539 4.95015L8.33074 4.19569L6.10397 5.48349L3.87714 4.19569L2.58249 4.95015V6.45908L4.80932 7.74689V10.3225L6.10397 11.077L7.39856 10.3225V7.74689L9.62539 6.45908V4.95015ZM9.62539 9.0347V7.52576L8.33074 8.28023V9.78918L9.62539 9.0347ZM10.5446 9.56804L8.3178 10.8559V12.3648L11.8392 10.3225V6.23794L10.5446 6.99242V9.56804ZM9.24992 3.66235L10.5446 4.41682V5.92576L11.8392 5.17129V3.66235L10.5446 2.90788L9.24992 3.66235ZM4.80932 11.4022V12.9111L6.10397 13.6656L7.39856 12.9111V11.4022L6.10397 12.1567L4.80932 11.4022ZM2.58249 9.0347L3.87714 9.78918V8.28023L2.58249 7.52576V9.0347ZM4.80932 3.66235L6.10397 4.41682L7.39856 3.66235L6.10397 2.90788L4.80932 3.66235ZM1.6633 4.41682L2.95796 3.66235L1.6633 2.90788L0.368652 3.66235V5.17129L1.6633 5.92576V4.41682ZM1.6633 6.99242L0.368652 6.23794V10.3225L3.89008 12.3648V10.8559L1.6633 9.56804V6.99242Z" fill="#FFFFFF"/>
</svg>
